<svg xmlns="http://www.w3.org/2000/svg" version="1.1" xmlns:xlink="http://www.w3.org/1999/xlink" xmlns:svgjs="http://svgjs.com/svgjs" width="500" height="500"><svg version="1.1" id="SvgjsSvg1002" xmlns="http://www.w3.org/2000/svg" xmlns:xlink="http://www.w3.org/1999/xlink" x="0px" y="0px" viewBox="0 0 500 500" style="enable-background:new 0 0 500 500;" xml:space="preserve">
<style type="text/css">
	.st0{fill:#FFFFFF;}
</style>
<g id="SvgjsG1001">
	<path id="SvgjsPath1000" class="st0" d="M437.7,173.9c-9.9-11.4-22.6-16.2-37.5-16.2c-41.5,0-83,0-124.5,0c-1.4,0-2.8,0-4.2,0
		c-0.1-0.3-0.3-0.6-0.4-0.9c1-0.9,2.1-1.9,3.1-2.8c30.3-30.3,60.5-60.5,90.8-90.8c1.2-1.2,2.3-2.5,3.3-3.8c6.6-9.3,3-20.6-7.8-24.1
		c-6.8-2.2-12.1,0.7-16.8,5.4c-30.9,30.9-61.8,61.8-92.7,92.8c-2,2-3.1,2.3-5.1,0.1c-5.3-5.6-10.8-10.9-16.3-16.4
		c-10.2-10.2-20.4-20.5-30.8-30.7c-9.4-9.2-22.8-6.6-26.7,5.2c-2.1,6.6,0.2,12.2,5.1,17c15.3,15.2,30.5,30.4,45.7,45.7
		c0.9,0.9,2.3,1.6,2.6,3.4c-1.7,0-3.1,0-4.5,0c-41.5,0-83,0.2-124.5-0.1c-30.4-0.2-49,23.8-48.8,48.8c0.6,60.7,0.1,121.4,0.2,182.1
		c0,26.8,20.2,46.9,47,47c16.6,0.1,33.2,0,49.7,0c85.7,0,171.5,0,257.2,0c25.9,0,46.8-19.9,46.9-45.1c0.2-62.5,0.1-125,0-187.6
		C448.9,191.9,444.9,182.2,437.7,173.9z M340,330.2c-0.7,13-2.3,26-6.4,38.4c-5.7,17.2-18,26.8-35.2,30.9c-12.6,3-25.5,4.2-38.4,4.5
		c-18.1,0.4-36.3,0.1-54.4,0.1c-18.5,0-37.1,0.8-55.6-0.7c-12.6-1-25.1-2.3-37.1-6.8C98.5,391.3,90,381,85.6,366.7
		c-4.5-14.5-5.7-29.4-6.2-44.4c-0.7-21.1-0.8-42.3,0.7-63.4c0.8-11.2,2.4-22.3,5.7-33c5.4-17.3,17.4-27.3,34.6-31.7
		c17.5-4.5,35.4-5,53.2-5.2c30.4-0.5,60.8-0.8,91.2,0.6c14.4,0.6,28.8,1.9,42.6,7c13.6,5,22.1,14.7,26.5,28.2
		c4.1,12.2,5.5,24.9,6.2,37.7C341.3,285,341.3,307.6,340,330.2z M394.9,343.9c-13.1-0.1-23.8-10.7-24-23.9
		c-0.2-13.1,10.7-24.1,24-24.1c13.3,0,24.2,10.7,24.2,24C419.1,333,408,343.9,394.9,343.9z M394.9,282.1c-13.3,0-24.2-11-24-24.1
		c0.2-13.2,10.8-23.8,24-23.8c13.3,0,24.2,10.8,24.2,24C419.1,271.3,408.2,282.1,394.9,282.1z"></path>
</g>
</svg><style>@media (prefers-color-scheme: light) { :root { filter: none; } }
</style></svg>