<?xml version="1.0" standalone="no"?>
<!DOCTYPE svg PUBLIC "-//W3C//DTD SVG 20010904//EN"
 "http://www.w3.org/TR/2001/REC-SVG-20010904/DTD/svg10.dtd">
<svg version="1.0" xmlns="http://www.w3.org/2000/svg"
 width="306.000000pt" height="306.000000pt" viewBox="0 0 306.000000 306.000000"
 preserveAspectRatio="xMidYMid meet">
<metadata>
Created by potrace 1.14, written by Peter Selinger 2001-2017
</metadata>
<g transform="translate(0.000000,306.000000) scale(0.100000,-0.100000)"
fill="#000000" stroke="none">
<path d="M2880 2974 c-299 -33 -490 -71 -700 -141 -568 -189 -903 -531 -985
-1007 -17 -103 -20 -284 -5 -406 11 -88 49 -244 57 -236 3 3 27 59 53 125 218
540 570 959 989 1175 100 51 208 96 230 96 9 0 -25 -22 -74 -48 -290 -154
-597 -442 -803 -752 -66 -99 -197 -350 -242 -465 -112 -279 -169 -522 -191
-815 -10 -143 -4 -370 11 -353 4 4 23 64 43 134 101 354 250 569 492 711 33
19 137 74 230 122 232 119 321 180 446 305 232 233 395 569 525 1081 46 181
102 461 96 478 -5 14 -6 14 -172 -4z"/>
<path d="M13 1793 c9 -343 61 -515 213 -704 63 -79 121 -129 274 -238 63 -45
151 -108 194 -139 44 -31 121 -97 170 -147 133 -132 183 -209 304 -475 10 -21
11 -12 6 45 -31 392 -130 715 -296 958 -29 44 -61 93 -70 110 -30 57 -190 238
-294 333 -56 51 -100 95 -97 98 7 6 97 -48 162 -99 94 -72 256 -247 321 -346
73 -110 179 -323 213 -427 14 -40 27 -66 30 -58 17 44 29 189 23 279 -14 212
-57 341 -163 481 -99 131 -203 207 -378 276 -104 41 -454 194 -527 231 -96 49
-91 59 -85 -178z"/>
</g>
</svg>
