<?xml version="1.0" standalone="no"?>
<!DOCTYPE svg PUBLIC "-//W3C//DTD SVG 20010904//EN"
 "http://www.w3.org/TR/2001/REC-SVG-20010904/DTD/svg10.dtd">
<svg version="1.0" xmlns="http://www.w3.org/2000/svg"
 width="500.000000pt" height="500.000000pt" viewBox="0 0 500.000000 500.000000"
 preserveAspectRatio="xMidYMid meet">
<metadata>
Created by potrace 1.14, written by Peter Selinger 2001-2017
</metadata>
<g transform="translate(0.000000,500.000000) scale(0.100000,-0.100000)"
fill="#000000" stroke="none">
<path d="M0 2500 l0 -2500 2500 0 2500 0 0 2500 0 2500 -2500 0 -2500 0 0
-2500z m2595 2128 c66 -56 213 -195 327 -308 l206 -205 6 -100 c3 -55 11 -350
16 -655 15 -843 42 -1693 64 -2045 3 -44 8 -159 12 -255 l6 -176 -321 -274
c-177 -151 -330 -279 -341 -284 -23 -10 -60 7 -385 179 -286 152 -464 255
-474 274 -4 9 -2 153 5 321 20 479 53 1287 64 1600 46 1257 50 1348 64 1382
16 39 247 288 445 479 96 93 177 169 180 169 4 0 60 -46 126 -102z m1832 -633
l182 -180 6 -135 c3 -74 10 -387 15 -695 11 -578 20 -863 45 -1405 8 -173 15
-344 15 -380 l0 -65 -270 -230 c-197 -168 -275 -230 -292 -228 -26 2 -312 149
-545 281 l-153 86 0 45 c0 25 4 141 10 256 15 329 38 900 65 1640 13 374 27
709 31 745 l6 66 122 134 c67 74 185 194 260 267 l139 132 91 -77 c50 -42 173
-158 273 -257z m-3395 237 c57 -49 176 -160 264 -248 l161 -159 6 -60 c7 -66
13 -270 27 -1005 6 -272 17 -652 26 -845 30 -696 32 -770 27 -778 -7 -12 -503
-436 -531 -455 -22 -14 -28 -13 -90 17 -214 104 -628 335 -634 354 -3 7 -1 91
3 187 9 203 50 1224 80 2005 l20 539 33 41 c93 113 475 495 495 495 6 0 57
-40 113 -88z"/>
<path d="M2500 3998 c0 -4 7 -8 15 -8 8 0 15 4 15 8 0 5 -7 9 -15 9 -8 0 -15
-4 -15 -9z"/>
<path d="M4090 3720 c0 -5 5 -10 11 -10 5 0 7 5 4 10 -3 6 -8 10 -11 10 -2 0
-4 -4 -4 -10z"/>
</g>
</svg>
